<svg width="813" height="813" viewBox="0 0 813 813" fill="none" xmlns="http://www.w3.org/2000/svg">
<path d="M665.938 422.079V400.948C621.7 364.68 562.438 343.163 499.749 340.606C482.383 338.915 464.773 340.777 448.512 346.021C432.251 351.265 417.85 359.726 406.611 370.641C395.01 360.078 380.545 351.863 364.364 346.649C348.184 341.435 330.733 339.366 313.399 340.606C250.658 343.133 191.337 364.653 147.062 400.948V422.079L110 431.135V733L358.319 690.739L369.438 702.813H443.562L454.681 690.739L703 733V431.135L665.938 422.079ZM313.102 621.612C267.587 622.6 222.927 631.905 182.42 648.84L184.125 413.627C218.041 387.546 262.384 372.323 308.989 370.762C337.428 372.196 364.957 379.476 389.007 391.923L388.302 629.46C363.768 623.656 338.269 621.018 312.732 621.642L313.102 621.612ZM628.875 648.176C588.997 631.629 545.082 622.552 500.342 621.612L494.375 621.551C469.914 621.551 446.305 624.449 423.993 629.823L425.735 391.289C449.144 379.319 475.839 372.276 503.418 370.792C550.252 372.247 594.846 387.501 628.912 413.717L628.801 648.206L628.875 648.176Z" fill="#1D374E"/>
<path d="M356.281 423.666C317.563 407.87 266.38 409.071 228.966 428.525C219.073 433.685 228.517 447.607 238.343 442.764C270.213 426.916 314.879 427.243 347.069 440.684C358.683 445.493 367.934 428.435 356.281 423.666ZM357.086 469.528C315.927 453.912 263.697 449.548 223.834 471.771C215.172 476.605 223.483 488.496 232.093 484.292C268.772 466.399 314.002 474.116 350.931 485.75C360.501 488.802 366.518 473.095 357.086 469.528ZM356.965 515.31C352.522 511.966 346.478 510.571 341.227 508.947C303.125 497.127 253.281 498.664 218.039 518.183C210.276 522.47 217.464 533.466 225.183 530.946C244.584 524.682 262.929 520.894 283.321 519.844C299.306 519.018 313.887 520.055 329.353 523.88C334.021 525.018 338.452 525.342 342.95 527.194C346.18 528.51 350.188 530.186 353.694 530.471C361.349 531.053 362.433 520.063 357.963 516.092L356.965 515.31Z" fill="#1D374E"/>
<path d="M518 425.978C518 422.677 520.686 420 524 420H542C545.314 420 548 422.677 548 425.978V572.022C548 575.323 545.314 578 542 578H524C520.686 578 518 575.323 518 572.022V425.978Z" fill="#1E394E"/>
<path d="M583.023 461C586.324 461 589 463.686 589 467V485C589 488.314 586.324 491 583.023 491H483.977C480.676 491 478 488.314 478 485V467C478 463.686 480.676 461 483.977 461H583.023Z" fill="#1E394E"/>
<path d="M151 168C151 158.611 158.611 151 168 151H646C655.389 151 663 158.611 663 168V182C663 191.389 655.389 199 646 199H168C158.611 199 151 191.389 151 182V168Z" fill="#1C364D"/>
<path d="M187.5 407C181.149 407 176 401.851 176 395.5L176 190.5C176 184.149 181.149 179 187.5 179C193.851 179 199 184.149 199 190.5L199 395.5C199 401.851 193.851 407 187.5 407Z" fill="#1C364D"/>
<path d="M627.5 407C621.149 407 616 401.851 616 395.5V190.5C616 184.149 621.149 179 627.5 179C633.851 179 639 184.149 639 190.5V395.5C639 401.851 633.851 407 627.5 407Z" fill="#1C364D"/>
<path d="M406.5 179C400.149 179 395 173.851 395 167.5V141.5C395 135.149 400.149 130 406.5 130C412.851 130 418 135.149 418 141.5V167.5C418 173.851 412.851 179 406.5 179Z" fill="#1C364D"/>
<path d="M234 246.5C234 240.149 239.149 235 245.5 235H458.5C464.851 235 470 240.149 470 246.5C470 252.851 464.851 258 458.5 258H245.5C239.149 258 234 252.851 234 246.5Z" fill="#1C364D"/>
<path d="M234 298.5C234 292.149 239.149 287 245.5 287H394.5C400.851 287 406 292.149 406 298.5C406 304.851 400.851 310 394.5 310H245.5C239.149 310 234 304.851 234 298.5Z" fill="#1C364D"/>
</svg>
