<svg width="512" height="512" viewBox="0 0 512 512" fill="none" xmlns="http://www.w3.org/2000/svg">
<rect width="512" height="512" fill="white"/>
<path d="M419.385 265.811V252.504C391.526 229.663 354.205 216.112 314.725 214.502C303.789 213.438 292.699 214.61 282.458 217.912C272.217 221.215 263.148 226.544 256.07 233.417C248.764 226.765 239.654 221.592 229.464 218.308C219.274 215.025 208.285 213.721 197.368 214.502C157.856 216.094 120.498 229.646 92.615 252.504V265.811L69.2743 271.514V461.619L225.657 435.004L232.659 442.608H279.341L286.343 435.004L442.726 461.619V271.514L419.385 265.811ZM197.181 391.47C168.518 392.093 140.392 397.953 114.882 408.618L115.956 260.488C137.315 244.063 165.241 234.477 194.591 233.493C212.501 234.397 229.838 238.981 244.983 246.82L244.54 396.413C229.089 392.757 213.03 391.096 196.948 391.489L197.181 391.47ZM396.044 408.199C370.931 397.778 343.274 392.063 315.099 391.47L311.341 391.432C295.936 391.432 281.068 393.257 267.017 396.641L268.114 246.42C282.856 238.883 299.667 234.447 317.036 233.512C346.53 234.429 374.614 244.035 396.068 260.545L395.998 408.218L396.044 408.199Z" fill="#1D374E"/>
<path d="M224.374 266.811C199.99 256.863 167.757 257.619 144.195 269.87C137.965 273.12 143.913 281.888 150.101 278.838C170.171 268.857 198.3 269.063 218.572 277.528C225.886 280.557 231.712 269.814 224.374 266.811ZM224.881 295.693C198.96 285.859 166.067 283.11 140.963 297.105C135.508 300.15 140.742 307.638 146.164 304.99C169.263 293.722 197.748 298.582 221.005 305.909C227.031 307.831 230.821 297.939 224.881 295.693ZM224.804 324.525C222.006 322.419 218.2 321.54 214.893 320.518C190.898 313.074 159.508 314.042 137.313 326.334C132.425 329.034 136.951 335.959 141.813 334.372C154.031 330.427 165.584 328.041 178.426 327.38C188.493 326.86 197.676 327.513 207.416 329.922C210.355 330.639 213.146 330.843 215.978 332.009C218.012 332.838 220.537 333.893 222.745 334.073C227.565 334.439 228.248 327.518 225.433 325.017L224.804 324.525Z" fill="#1D374E"/>
<path d="M326.219 268.267C326.219 266.188 327.911 264.502 329.998 264.502H341.333C343.42 264.502 345.112 266.188 345.112 268.267V360.24C345.112 362.319 343.42 364.005 341.333 364.005H329.998C327.911 364.005 326.219 362.319 326.219 360.24V268.267Z" fill="#1E394E"/>
<path d="M367.168 290.322C369.247 290.322 370.932 292.014 370.932 294.101V305.437C370.932 307.524 369.247 309.215 367.168 309.215H304.792C302.714 309.215 301.028 307.524 301.028 305.437V294.101C301.028 292.014 302.714 290.322 304.792 290.322H367.168Z" fill="#1E394E"/>
<path d="M95.0947 105.801C95.0947 99.888 99.888 95.0947 105.801 95.0947H406.829C412.742 95.0947 417.535 99.888 417.535 105.801V114.617C417.535 120.53 412.742 125.324 406.829 125.324H105.801C99.888 125.324 95.0947 120.53 95.0947 114.617V105.801Z" fill="#1C364D"/>
<path d="M118.081 256.315C114.081 256.315 110.839 253.072 110.839 249.073L110.839 119.97C110.839 115.971 114.081 112.728 118.081 112.728C122.081 112.728 125.323 115.971 125.323 119.97L125.323 249.073C125.323 253.072 122.081 256.315 118.081 256.315Z" fill="#1C364D"/>
<path d="M395.178 256.315C391.179 256.315 387.936 253.072 387.936 249.073V119.97C387.936 115.971 391.179 112.728 395.178 112.728C399.178 112.728 402.421 115.971 402.421 119.97V249.073C402.421 253.072 399.178 256.315 395.178 256.315Z" fill="#1C364D"/>
<path d="M256 112.728C252 112.728 248.758 109.486 248.758 105.486V89.1119C248.758 85.1121 252 81.8696 256 81.8696C260 81.8696 263.242 85.1121 263.242 89.1119V105.486C263.242 109.486 260 112.728 256 112.728Z" fill="#1C364D"/>
<path d="M147.365 155.237C147.365 151.238 150.608 147.995 154.608 147.995H288.748C292.748 147.995 295.99 151.238 295.99 155.237C295.99 159.237 292.748 162.48 288.748 162.48H154.608C150.608 162.48 147.365 159.237 147.365 155.237Z" fill="#1C364D"/>
<path d="M147.365 187.985C147.365 183.985 150.608 180.743 154.608 180.743H248.443C252.443 180.743 255.685 183.985 255.685 187.985C255.685 191.985 252.443 195.228 248.443 195.228H154.608C150.608 195.228 147.365 191.985 147.365 187.985Z" fill="#1C364D"/>
</svg>
